HIERARCHY
ROOT root
{
	OFFSET 0.000000 0.000000 0.000000
	CHANNELS 6 Xposition Yposition Zposition Zrotation Yrotation Xrotation
	JOINT lhip
	{
		OFFSET 0.058581 -0.082280 -0.017664
		CHANNELS 3 Zrotation Yrotation Xrotation
		JOINT lknee
		{
			OFFSET 0.043451 -0.386469 0.008037
			CHANNELS 3 Zrotation Yrotation Xrotation
			JOINT lankle
			{
				OFFSET -0.014790 -0.426874 -0.037428
				CHANNELS 3 Zrotation Yrotation Xrotation
				JOINT ltoe
				{
					OFFSET 0.041054 -0.060286 0.122042
					CHANNELS 3 Zrotation Yrotation Xrotation
					End Site
					{
						OFFSET 0.000000 0.000000 0.000000
					}
				}
			}
		}
	}
	JOINT rhip
	{
		OFFSET -0.060310 -0.090513 -0.013543
		CHANNELS 3 Zrotation Yrotation Xrotation
		JOINT rknee
		{
			OFFSET -0.043257 -0.383688 -0.004843
			CHANNELS 3 Zrotation Yrotation Xrotation
			JOINT rankle
			{
				OFFSET 0.019056 -0.420046 -0.034562
				CHANNELS 3 Zrotation Yrotation Xrotation
				JOINT rtoe
				{
					OFFSET -0.034840 -0.062106 0.130323
					CHANNELS 3 Zrotation Yrotation Xrotation
					End Site
					{
						OFFSET 0.000000 0.000000 0.000000
					}
				}
			}
		}
	}
	JOINT lowerback
	{
		OFFSET 0.004439 0.124404 -0.038385
		CHANNELS 3 Zrotation Yrotation Xrotation
		JOINT upperback
		{
			OFFSET 0.004488 0.137956 0.026820
			CHANNELS 3 Zrotation Yrotation Xrotation
			JOINT chest
			{
				OFFSET -0.002265 0.056032 0.002855
				CHANNELS 3 Zrotation Yrotation Xrotation
				JOINT lowerneck
				{
					OFFSET -0.013390 0.211636 -0.033468
					CHANNELS 3 Zrotation Yrotation Xrotation
					JOINT upperneck
					{
						OFFSET 0.010113 0.088937 0.050410
						CHANNELS 3 Zrotation Yrotation Xrotation
						End Site
						{
							OFFSET 0.000000 0.000000 0.000000
						}
					}
				}
				JOINT lclavicle
				{
					OFFSET 0.071702 0.114000 -0.018898
					CHANNELS 3 Zrotation Yrotation Xrotation
					JOINT lshoulder
					{
						OFFSET 0.122921 0.045205 -0.019046
						CHANNELS 3 Zrotation Yrotation Xrotation
						JOINT lelbow
						{
							OFFSET 0.255332 -0.015649 -0.022946
							CHANNELS 3 Zrotation Yrotation Xrotation
							JOINT lwrist
							{
								OFFSET 0.265709 0.012698 -0.007375
								CHANNELS 3 Zrotation Yrotation Xrotation
								End Site
								{
									OFFSET 0.000000 0.000000 0.000000
								}
							}
						}
					}
				}
				JOINT rclavicle
				{
					OFFSET -0.082954 0.112472 -0.023707
					CHANNELS 3 Zrotation Yrotation Xrotation
					JOINT rshoulder
					{
						OFFSET -0.113228 0.046853 -0.008472
						CHANNELS 3 Zrotation Yrotation Xrotation
						JOINT relbow
						{
							OFFSET -0.260127 -0.014369 -0.031269
							CHANNELS 3 Zrotation Yrotation Xrotation
							JOINT rwrist
							{
								OFFSET -0.269108 0.006794 -0.006027
								CHANNELS 3 Zrotation Yrotation Xrotation
								End Site
								{
									OFFSET 0.000000 0.000000 0.000000
								}
							}
						}
					}
				}
			}
		}
	}
}
MOTION
Frames: 10
Frame Time: 0.033333
-1.688313 0.247620 0.993216 92.008909 1.516590 92.010945 2.854215 2.602768 0.616449 -2.292762 -3.361594 2.533219 0.616265 11.036747 -13.198565 0.000000 -0.000000 0.000000 -0.977370 -2.077810 -3.881299 0.196126 -2.286376 11.717485 2.102091 -9.723625 -13.570348 0.000000 -0.000000 0.000000 1.757327 -0.117891 4.029861 0.886031 -0.288700 -7.256474 -0.720071 -1.212800 2.585486 2.729282 -2.788672 -2.028480 -0.714050 -6.653831 9.897214 -26.990349 7.865784 1.968245 -57.432735 -5.118712 8.842466 8.077182 -28.065928 12.741738 -1.730608 -0.059645 1.058320 25.815447 -1.363092 -0.766238 58.523511 3.234228 17.130044 -10.167481 25.406660 7.792370 -2.830278 0.155194 1.482485 
-1.688811 0.247981 0.993580 92.487369 1.408762 91.948848 2.586358 2.246593 0.439158 -2.094212 -3.487677 2.805818 1.101168 11.004059 -13.144370 0.000000 -0.000000 0.000000 -1.207189 -2.275195 -3.744757 0.403011 -2.344777 11.647617 2.368939 -9.999144 -13.786267 0.000000 -0.000000 0.000000 1.788464 -0.158078 4.256998 0.883717 -0.725170 -7.104048 -0.837409 -1.349191 2.266304 2.787311 -2.774996 -2.068610 -0.733927 -6.545949 9.756569 -26.830568 7.951718 1.911570 -57.624064 -5.070924 9.133907 8.166331 -28.064459 13.195100 -1.685523 -0.025170 0.378111 25.795024 -1.396327 -0.908729 58.574224 3.128624 17.421171 -10.267432 25.509522 7.958280 -3.050534 0.005005 1.169401 
-1.687588 0.247378 0.992187 92.096745 1.274646 92.188657 2.498025 2.353074 0.387381 -2.131641 -3.442704 2.535990 0.893355 11.243958 -12.941740 0.000000 -0.000000 0.000000 -1.367266 -2.055569 -4.021872 0.445498 -2.225941 11.691041 2.267420 -9.985598 -13.744429 0.000000 -0.000000 0.000000 1.512362 -0.133549 3.550651 0.817203 -0.640601 -6.576261 -0.725440 -1.273524 2.270750 2.840005 -2.654134 -2.085743 -0.698836 -6.607356 9.570255 -26.542934 7.958155 1.913268 -57.865080 -5.183607 9.195624 8.072341 -27.936286 13.417494 -1.694357 0.016199 0.100136 25.671131 -1.429145 -0.843936 58.840851 3.310733 17.491320 -10.306110 25.475471 8.130702 -3.198482 -0.019089 1.005992 
-1.687215 0.247110 0.991788 92.063868 1.278050 92.120698 2.527062 2.351543 0.460815 -2.119361 -3.447378 2.534948 0.901531 11.214444 -13.003050 0.000000 -0.000000 0.000000 -1.360257 -2.098344 -3.927153 0.460935 -2.175430 11.657267 2.304464 -9.967869 -13.765106 0.000000 -0.000000 0.000000 1.469195 -0.164675 3.648598 0.829605 -0.757449 -6.346167 -0.688647 -1.316094 2.076980 2.902463 -2.540092 -2.307860 -0.724456 -6.588206 9.625989 -26.464189 7.923621 1.886090 -58.017498 -5.222354 9.211132 8.105359 -27.863031 13.380503 -1.694363 -0.008306 0.059659 25.634708 -1.419128 -0.956520 58.922403 3.328228 17.511008 -10.322741 25.458682 8.043519 -3.192083 0.011247 0.977602 
-1.686813 0.246743 0.991309 91.980555 1.283376 92.011958 2.571194 2.442402 0.597586 -2.123858 -3.401433 2.486529 0.918479 11.101004 -13.002740 0.000000 -0.000000 0.000000 -1.339112 -2.185575 -3.819398 0.432026 -2.137625 11.663548 2.299704 -9.822614 -13.789751 0.000000 -0.000000 0.000000 1.488371 -0.218214 3.897581 0.815653 -0.874208 -6.064243 -0.693764 -1.247289 1.754889 2.930123 -2.377179 -2.573428 -0.689948 -6.521376 9.450514 -26.280540 8.128069 1.612936 -58.194734 -5.221568 9.179820 7.911603 -27.885424 13.694272 -1.730439 -0.004844 0.136543 25.497179 -1.474871 -1.070486 59.145707 3.401689 17.530037 -10.273319 25.403221 8.103247 -3.170625 0.037645 1.014151 
-1.686449 0.246434 0.991247 91.877866 1.287206 92.002131 2.590056 2.434316 0.631847 -2.123507 -3.285353 2.494451 0.841797 11.140936 -12.986391 0.000000 -0.000000 0.000000 -1.307715 -2.168341 -3.801050 0.417849 -2.064501 11.641119 2.333622 -9.810723 -13.793151 0.000000 -0.000000 0.000000 1.437045 -0.179013 3.859613 0.830299 -0.856230 -5.970150 -0.651956 -1.245317 1.691666 2.952064 -2.295134 -2.646789 -0.729168 -6.527380 9.637947 -26.225868 8.093120 1.603928 -58.309202 -5.375634 9.188974 7.911482 -27.761991 13.652114 -1.767302 -0.010397 0.231523 25.516145 -1.458991 -1.050455 59.157435 3.405414 17.523827 -10.336846 25.241807 7.965630 -3.114164 0.036978 1.036462 
-1.686208 0.246219 0.991357 91.751435 1.248042 92.045488 2.539263 2.434446 0.651622 -2.105412 -3.229030 2.432473 0.812628 11.214694 -12.934177 0.000000 -0.000000 0.000000 -1.337513 -2.122503 -3.854202 0.411163 -2.025687 11.644467 2.354657 -9.768805 -13.783739 0.000000 -0.000000 0.000000 1.555522 -0.416743 3.897578 0.794851 -1.034469 -6.050700 -0.788544 -1.037874 1.565251 2.890930 -2.024958 -2.647240 -0.815182 -6.261357 9.794643 -26.177815 8.193409 1.562690 -58.166576 -5.191893 9.148393 7.888056 -27.909793 13.692842 -1.810885 -0.127474 0.082904 25.547046 -1.248916 -0.727086 59.309082 3.502147 17.525010 -10.473010 24.998191 7.910020 -3.127488 0.042356 1.046514 
-1.686009 0.246387 0.991741 91.670211 1.157159 92.058128 2.415242 2.550374 0.685979 -2.059359 -3.281229 2.406413 0.919428 11.216036 -12.962116 0.000000 -0.000000 0.000000 -1.452215 -2.183528 -3.877833 0.415729 -2.062696 11.673196 2.419572 -9.601759 -13.801101 0.000000 -0.000000 0.000000 1.913355 -1.097530 4.205938 0.765276 -1.678948 -6.342736 -1.215817 -0.474513 1.143097 2.779975 -1.449452 -2.406799 -0.987895 -5.506849 9.936955 -26.337112 8.757795 1.130375 -57.408310 -4.439034 8.901927 7.451766 -28.418678 14.009388 -1.894241 -0.280960 0.040793 25.831732 -0.754124 0.100182 59.393979 3.844517 17.390504 -10.595106 24.476064 7.758249 -3.173629 0.146619 1.400994 
-1.686012 0.246188 0.991450 91.605434 1.229661 91.901552 2.544593 2.589621 0.864496 -2.106226 -3.238589 2.392806 0.944527 11.190224 -13.005151 0.000000 -0.000000 0.000000 -1.364448 -2.169610 -3.720474 0.412614 -1.991462 11.681452 2.416929 -9.625069 -13.842737 0.000000 -0.000000 0.000000 1.589438 -0.619464 4.267592 0.833908 -1.222158 -5.883872 -0.864530 -0.841110 1.087087 2.927681 -1.714253 -2.698620 -0.923018 -6.000131 10.045611 -26.302789 8.306003 1.273472 -57.735498 -4.939920 9.064471 7.689483 -28.333734 13.747321 -1.795871 -0.230091 0.243464 25.811385 -0.993128 -0.350257 59.064266 3.557569 17.412285 -10.495274 24.666743 7.653037 -3.122400 0.096135 1.358131 
-1.685736 0.245882 0.990882 91.476753 1.287616 91.788492 2.645211 2.570521 0.999305 -2.124167 -3.140836 2.378492 0.913699 11.233021 -13.025209 0.000000 -0.000000 0.000000 -1.277887 -2.149846 -3.607915 0.394125 -1.877452 11.697259 2.373166 -9.650765 -13.889883 0.000000 -0.000000 0.000000 1.342247 -0.169903 4.259330 0.836989 -0.736588 -5.408932 -0.542156 -1.190074 1.066310 3.052024 -1.892983 -3.139063 -0.897859 -6.470228 10.224007 -26.173842 7.817651 1.528618 -58.164237 -5.518842 9.256031 8.084774 -28.292687 13.354325 -1.690248 -0.252734 0.273396 25.752986 -1.233864 -0.844729 58.873526 3.316905 17.518614 -10.436405 24.805243 7.576322 -3.071623 0.015886 1.250108 
